<?xml version="1.0" encoding="UTF-8"?>
<!DOCTYPE svg PUBLIC "-//W3C//DTD SVG 1.1//EN" "http://www.w3.org/Graphics/SVG/1.1/DTD/svg11.dtd">
<svg xmlns="http://www.w3.org/2000/svg" version="1.1" width="64px" height="64px" style="shape-rendering:geometricPrecision; text-rendering:geometricPrecision; image-rendering:optimizeQuality; fill-rule:evenodd; clip-rule:evenodd" xmlns:xlink="http://www.w3.org/1999/xlink">
<g><path style="opacity:0.819" fill="#000000" d="M 15.5,-0.5 C 18.1667,-0.5 20.8333,-0.5 23.5,-0.5C 27.24,2.64268 28.4066,6.64268 27,11.5C 25.6218,13.2134 23.9552,14.5467 22,15.5C 21.0629,27.5714 21.3962,39.5714 23,51.5C 29.5408,61.1373 36.8741,61.8039 45,53.5C 46.3088,51.2533 46.9755,48.9199 47,46.5C 45.5557,48.1554 43.7224,48.822 41.5,48.5C 41.9713,44.4975 43.9713,41.3308 47.5,39C 48.7932,38.51 50.1266,38.3433 51.5,38.5C 54.0262,49.7656 50.3596,58.099 40.5,63.5C 36.5,63.5 32.5,63.5 28.5,63.5C 23.8566,61.0212 20.3566,57.3545 18,52.5C 17.8326,40.1532 17.3326,27.8199 16.5,15.5C 11.8122,12.7868 10.3122,8.78682 12,3.5C 12.6897,1.64977 13.8564,0.316435 15.5,-0.5 Z M 18.5,3.5 C 22.2635,4.38497 23.2635,6.55164 21.5,10C 15.1417,10.1207 14.1417,7.95402 18.5,3.5 Z"/></g>
</svg>
