<?xml version="1.0" encoding="UTF-8"?>
<!DOCTYPE svg PUBLIC "-//W3C//DTD SVG 1.1//EN" "http://www.w3.org/Graphics/SVG/1.1/DTD/svg11.dtd">
<svg xmlns="http://www.w3.org/2000/svg" version="1.1" width="60px" height="60px" style="shape-rendering:geometricPrecision; text-rendering:geometricPrecision; image-rendering:optimizeQuality; fill-rule:evenodd; clip-rule:evenodd" xmlns:xlink="http://www.w3.org/1999/xlink">
<g><path style="opacity:0.011" fill="#3a3a3a" d="M 0.5,-0.5 C 1.83333,-0.5 3.16667,-0.5 4.5,-0.5C 8.16667,3.83333 12.1667,7.83333 16.5,11.5C 16.5,12.1667 16.8333,12.5 17.5,12.5C 17.5,13.8333 17.5,15.1667 17.5,16.5C 17.1667,16.5 16.8333,16.5 16.5,16.5C 16.5,15.8333 16.1667,15.5 15.5,15.5C 15.5,14.8333 15.1667,14.5 14.5,14.5C 9.83333,9.5 5.16667,4.5 0.5,-0.5 Z"/></g>
<g><path style="opacity:0.123" fill="#2f2f2f" d="M 7.5,-0.5 C 8.83333,-0.5 10.1667,-0.5 11.5,-0.5C 13.5,2.16667 15.8333,4.5 18.5,6.5C 18.5,7.16667 18.8333,7.5 19.5,7.5C 19.2041,9.40301 18.5375,11.0697 17.5,12.5C 16.8333,12.5 16.5,12.1667 16.5,11.5C 16.6107,10.8826 16.944,10.3826 17.5,10C 13.9626,6.63087 10.6293,3.13087 7.5,-0.5 Z"/></g>
<g><path style="opacity:0.008" fill="#7f807f" d="M 14.5,-0.5 C 15.1667,-0.5 15.8333,-0.5 16.5,-0.5C 17.4577,0.961599 18.6244,2.29493 20,3.5C 20.6917,4.43677 20.525,5.10343 19.5,5.5C 17.8333,3.5 16.1667,1.5 14.5,-0.5 Z"/></g>
<g><path style="opacity:0.008" fill="#7f807f" d="M 28.5,-0.5 C 29.1667,-0.5 29.8333,-0.5 30.5,-0.5C 31.1667,0.5 31.8333,1.5 32.5,2.5C 31.8333,2.5 31.1667,2.5 30.5,2.5C 29.8333,1.5 29.1667,0.5 28.5,-0.5 Z"/></g>
<g><path style="opacity:0.004" fill="#343434" d="M 33.5,-0.5 C 34.8333,-0.5 36.1667,-0.5 37.5,-0.5C 44.1667,6.83333 51.1667,13.8333 58.5,20.5C 58.5,21.1667 58.8333,21.5 59.5,21.5C 59.5,22.8333 59.5,24.1667 59.5,25.5C 56.1667,22.5 52.8333,19.5 49.5,16.5C 49.5,15.8333 49.1667,15.5 48.5,15.5C 48.5,14.8333 48.1667,14.5 47.5,14.5C 47.5,13.8333 47.1667,13.5 46.5,13.5C 45.5,11.8333 44.1667,10.5 42.5,9.5C 42.5,8.83333 42.1667,8.5 41.5,8.5C 41.5,7.83333 41.1667,7.5 40.5,7.5C 40.5,6.83333 40.1667,6.5 39.5,6.5C 39.5,5.83333 39.1667,5.5 38.5,5.5C 38.5,4.83333 38.1667,4.5 37.5,4.5C 37.5,3.83333 37.1667,3.5 36.5,3.5C 36.5,2.83333 36.1667,2.5 35.5,2.5C 35.5,1.83333 35.1667,1.5 34.5,1.5C 34.1667,0.833333 33.8333,0.166667 33.5,-0.5 Z"/></g>
<g><path style="opacity:0.004" fill="#3e3e3e" d="M 40.5,-0.5 C 41.8333,-0.5 43.1667,-0.5 44.5,-0.5C 48.8333,4.5 53.5,9.16667 58.5,13.5C 58.5,14.1667 58.8333,14.5 59.5,14.5C 59.5,15.8333 59.5,17.1667 59.5,18.5C 52.8333,12.5 46.5,6.16667 40.5,-0.5 Z"/></g>
<g><path style="opacity:0.004" fill="#3d3d3d" d="M 47.5,-0.5 C 48.8333,-0.5 50.1667,-0.5 51.5,-0.5C 53.5,2.16667 55.8333,4.5 58.5,6.5C 58.5,7.16667 58.8333,7.5 59.5,7.5C 59.5,8.83333 59.5,10.1667 59.5,11.5C 55.1667,7.83333 51.1667,3.83333 47.5,-0.5 Z"/></g>
<g><path style="opacity:0.004" fill="#3b3b3b" d="M 54.5,-0.5 C 55.8333,-0.5 57.1667,-0.5 58.5,-0.5C 58.5,0.166667 58.8333,0.5 59.5,0.5C 59.5,1.83333 59.5,3.16667 59.5,4.5C 57.5,3.16667 55.8333,1.5 54.5,-0.5 Z"/></g>
<g><path style="opacity:0.429" fill="#262625" d="M 16.5,-0.5 C 17.1667,-0.5 17.8333,-0.5 18.5,-0.5C 18.8333,0.833333 19.1667,0.833333 19.5,-0.5C 21.5,-0.5 23.5,-0.5 25.5,-0.5C 25.5,0.166667 25.8333,0.5 26.5,0.5C 26.5,1.16667 26.8333,1.5 27.5,1.5C 27.5,2.16667 27.8333,2.5 28.5,2.5C 25.1268,3.35635 22.1268,5.02302 19.5,7.5C 18.8333,7.5 18.5,7.16667 18.5,6.5C 18.5,5.83333 18.8333,5.5 19.5,5.5C 20.525,5.10343 20.6917,4.43677 20,3.5C 18.6244,2.29493 17.4577,0.961599 16.5,-0.5 Z"/></g>
<g><path style="opacity:0.027" fill="#191919" d="M 26.5,0.5 C 26.5,0.166667 26.5,-0.166667 26.5,-0.5C 27.1667,-0.5 27.8333,-0.5 28.5,-0.5C 29.1667,0.5 29.8333,1.5 30.5,2.5C 29.8333,2.5 29.1667,2.5 28.5,2.5C 27.8333,2.5 27.5,2.16667 27.5,1.5C 26.8333,1.5 26.5,1.16667 26.5,0.5 Z"/></g>
<g><path style="opacity:1" fill="#d2c4b7" d="M 28.5,2.5 C 29.1667,2.5 29.8333,2.5 30.5,2.5C 32.8428,3.34431 35.1761,4.34431 37.5,5.5C 40.0367,9.40022 41.0367,13.7336 40.5,18.5C 39.6618,18.8417 39.3284,19.5084 39.5,20.5C 37.8333,21.5 36.5,22.8333 35.5,24.5C 31.9009,25.3439 28.2343,25.6773 24.5,25.5C 22.1667,23.8333 20.1667,21.8333 18.5,19.5C 18.7373,18.209 18.404,17.209 17.5,16.5C 17.5,15.1667 17.5,13.8333 17.5,12.5C 18.5375,11.0697 19.2041,9.40301 19.5,7.5C 22.1268,5.02302 25.1268,3.35635 28.5,2.5 Z"/></g>
<g><path style="opacity:0.218" fill="#2f2f2f" d="M -0.5,2.5 C 4.13118,6.62993 8.63118,10.9633 13,15.5C 13.3826,14.944 13.8826,14.6107 14.5,14.5C 15.1667,14.5 15.5,14.8333 15.5,15.5C 16.1667,15.5 16.5,15.8333 16.5,16.5C 16.5,16.8333 16.5,17.1667 16.5,17.5C 15.1667,17.8333 15.1667,18.1667 16.5,18.5C 16.5,19.1667 16.8333,19.5 17.5,19.5C 17.8333,20.8333 18.1667,20.8333 18.5,19.5C 20.1667,21.8333 22.1667,23.8333 24.5,25.5C 28.2343,25.6773 31.9009,25.3439 35.5,24.5C 35.5,25.1667 35.8333,25.5 36.5,25.5C 39.8333,28.1667 42.8333,31.1667 45.5,34.5C 44.5084,34.3284 43.8417,34.6618 43.5,35.5C 40.2026,32.7044 37.0359,29.7044 34,26.5C 33.5,27 33,27.5 32.5,28C 34.3734,29.7038 36.0401,31.5372 37.5,33.5C 36.8333,33.8333 36.1667,34.1667 35.5,34.5C 31.9009,33.6561 28.2343,33.3227 24.5,33.5C 24.0269,34.9063 23.0269,35.573 21.5,35.5C 18.5375,32.0359 15.3709,28.7025 12,25.5C 11.5,26 11,26.5 10.5,27C 13.7025,30.3709 17.0359,33.5375 20.5,36.5C 20.0679,37.7095 19.4013,38.7095 18.5,39.5C 18.0074,41.8056 17.6741,44.139 17.5,46.5C 20.4605,54.4814 26.1271,57.4814 34.5,55.5C 33.5291,56.9621 33.8624,58.2954 35.5,59.5C 34.1667,59.5 32.8333,59.5 31.5,59.5C 31.5,58.8333 31.1667,58.5 30.5,58.5C 30.1667,57.1667 29.8333,57.1667 29.5,58.5C 28.8333,58.5 28.5,58.8333 28.5,59.5C 27.1667,59.5 25.8333,59.5 24.5,59.5C 24.5,58.8333 24.1667,58.5 23.5,58.5C 15.8333,50.1667 7.83333,42.1667 -0.5,34.5C -0.5,33.1667 -0.5,31.8333 -0.5,30.5C 2.13029,32.6281 4.63029,34.9614 7,37.5C 7.5,37 8,36.5 8.5,36C 5.63064,32.9621 2.63064,30.1288 -0.5,27.5C -0.5,26.1667 -0.5,24.8333 -0.5,23.5C 1.79663,25.2941 3.9633,27.2941 6,29.5C 6.5,29 7,28.5 7.5,28C 4.96376,25.295 2.29709,22.795 -0.5,20.5C -0.5,19.1667 -0.5,17.8333 -0.5,16.5C 2.13029,18.6281 4.63029,20.9614 7,23.5C 7.5,23 8,22.5 8.5,22C 5.63064,18.9621 2.63064,16.1288 -0.5,13.5C -0.5,12.1667 -0.5,10.8333 -0.5,9.5C 2.46387,11.9619 5.2972,14.6286 8,17.5C 8.5,17 9,16.5 9.5,16C 6.29747,12.6291 2.96414,9.46247 -0.5,6.5C -0.5,5.16667 -0.5,3.83333 -0.5,2.5 Z"/></g>
<g><path style="opacity:0.533" fill="#0f0f0f" d="M 34.5,1.5 C 35.1667,1.5 35.5,1.83333 35.5,2.5C 36.1667,2.5 36.5,2.83333 36.5,3.5C 37.1667,3.5 37.5,3.83333 37.5,4.5C 37.5,4.83333 37.5,5.16667 37.5,5.5C 35.1761,4.34431 32.8428,3.34431 30.5,2.5C 31.1667,2.5 31.8333,2.5 32.5,2.5C 33.1667,2.16667 33.8333,1.83333 34.5,1.5 Z"/></g>
<g><path style="opacity:0.012" fill="#545554" d="M 59.5,5.5 C 59.5,5.83333 59.5,6.16667 59.5,6.5C 58.8299,6.01865 58.8299,5.68532 59.5,5.5 Z"/></g>
<g><path style="opacity:0.008" fill="#7f807f" d="M 41.5,11.5 C 42.8333,12.1667 43.8333,13.1667 44.5,14.5C 42.5,14.5 41.5,13.5 41.5,11.5 Z"/></g>
<g><path style="opacity:0.012" fill="#545554" d="M 59.5,12.5 C 59.5,12.8333 59.5,13.1667 59.5,13.5C 58.8299,13.0187 58.8299,12.6853 59.5,12.5 Z"/></g>
<g><path style="opacity:0.427" fill="#202020" d="M 37.5,5.5 C 37.8333,5.5 38.1667,5.5 38.5,5.5C 39.1667,5.5 39.5,5.83333 39.5,6.5C 40.1667,6.5 40.5,6.83333 40.5,7.5C 41.1667,7.5 41.5,7.83333 41.5,8.5C 42.1667,8.5 42.5,8.83333 42.5,9.5C 42.1667,10.1667 41.8333,10.8333 41.5,11.5C 41.5,13.5 42.5,14.5 44.5,14.5C 45.1667,14.1667 45.8333,13.8333 46.5,13.5C 47.1667,13.5 47.5,13.8333 47.5,14.5C 48.1667,14.5 48.5,14.8333 48.5,15.5C 49.1667,15.5 49.5,15.8333 49.5,16.5C 48.5291,17.9621 48.8624,19.2954 50.5,20.5C 52.7657,24.4356 55.7657,27.7689 59.5,30.5C 59.5,31.1667 59.5,31.8333 59.5,32.5C 58.1667,32.8333 58.1667,33.1667 59.5,33.5C 59.5,34.1667 59.5,34.8333 59.5,35.5C 56.8697,33.3719 54.3697,31.0386 52,28.5C 53.4546,32.1435 55.9546,35.1435 59.5,37.5C 59.5,38.1667 59.5,38.8333 59.5,39.5C 58.1667,39.8333 58.1667,40.1667 59.5,40.5C 59.5,41.1667 59.5,41.8333 59.5,42.5C 56.5361,40.0381 53.7028,37.3714 51,34.5C 50.6012,34.7284 50.4346,35.0618 50.5,35.5C 49.1667,35.8333 49.1667,36.1667 50.5,36.5C 50.3893,37.1174 50.056,37.6174 49.5,38C 52.3694,41.0379 55.3694,43.8712 58.5,46.5C 58.5,47.1667 58.8333,47.5 59.5,47.5C 59.5,48.8333 59.5,50.1667 59.5,51.5C 55.8691,48.3707 52.3691,45.0374 49,41.5C 48.6174,42.056 48.1174,42.3893 47.5,42.5C 47.1667,41.1667 46.8333,41.1667 46.5,42.5C 45.2921,41.7659 43.9587,41.4326 42.5,41.5C 42.1667,41.5 41.8333,41.5 41.5,41.5C 41.5,40.8333 41.1667,40.5 40.5,40.5C 38.863,38.5248 37.1964,36.5248 35.5,34.5C 36.1667,34.1667 36.8333,33.8333 37.5,33.5C 39.1288,34.6253 40.6288,35.9586 42,37.5C 42.7172,36.9558 43.2172,36.2891 43.5,35.5C 43.8417,34.6618 44.5084,34.3284 45.5,34.5C 46.5,34.1667 47.1667,33.5 47.5,32.5C 47.9382,32.5654 48.2716,32.3988 48.5,32C 45.3333,28.8333 42.1667,25.6667 39,22.5C 38.6012,22.7284 38.4346,23.0618 38.5,23.5C 37.5,23.8333 36.8333,24.5 36.5,25.5C 35.8333,25.5 35.5,25.1667 35.5,24.5C 36.5,22.8333 37.8333,21.5 39.5,20.5C 39.3284,19.5084 39.6618,18.8417 40.5,18.5C 41.0367,13.7336 40.0367,9.40022 37.5,5.5 Z"/></g>
<g><path style="opacity:0.533" fill="#161616" d="M 17.5,16.5 C 18.404,17.209 18.7373,18.209 18.5,19.5C 18.1667,19.5 17.8333,19.5 17.5,19.5C 16.8333,19.5 16.5,19.1667 16.5,18.5C 16.5,18.1667 16.5,17.8333 16.5,17.5C 17.1667,17.5 17.5,17.1667 17.5,16.5 Z"/></g>
<g><path style="opacity:0.008" fill="#7d7c78" d="M 40.5,18.5 C 44.3044,20.1314 46.8044,22.7981 48,26.5C 45.295,23.9638 42.795,21.2971 40.5,18.5 Z"/></g>
<g><path style="opacity:0.012" fill="#545554" d="M 59.5,19.5 C 59.5,19.8333 59.5,20.1667 59.5,20.5C 58.8299,20.0187 58.8299,19.6853 59.5,19.5 Z"/></g>
<g><path style="opacity:0.008" fill="#7f807f" d="M 50.5,20.5 C 53.1667,22.8333 55.8333,25.1667 58.5,27.5C 58.5,28.1667 58.8333,28.5 59.5,28.5C 59.5,29.1667 59.5,29.8333 59.5,30.5C 55.7657,27.7689 52.7657,24.4356 50.5,20.5 Z"/></g>
<g><path style="opacity:0.008" fill="#7f807f" d="M 47.5,32.5 C 44.1667,29.8333 41.1667,26.8333 38.5,23.5C 38.4346,23.0618 38.6012,22.7284 39,22.5C 42.1667,25.6667 45.3333,28.8333 48.5,32C 48.2716,32.3988 47.9382,32.5654 47.5,32.5 Z"/></g>
<g><path style="opacity:0.012" fill="#545554" d="M 59.5,26.5 C 59.5,26.8333 59.5,27.1667 59.5,27.5C 58.8299,27.0187 58.8299,26.6853 59.5,26.5 Z"/></g>
<g><path style="opacity:0.008" fill="#7f807f" d="M 59.5,35.5 C 59.5,36.1667 59.5,36.8333 59.5,37.5C 55.9546,35.1435 53.4546,32.1435 52,28.5C 54.3697,31.0386 56.8697,33.3719 59.5,35.5 Z"/></g>
<g><path style="opacity:1" fill="#d0c1b5" d="M 24.5,33.5 C 28.2343,33.3227 31.9009,33.6561 35.5,34.5C 37.1964,36.5248 38.863,38.5248 40.5,40.5C 40.6641,43.1873 40.4974,45.854 40,48.5C 39.6232,49.9423 38.7899,50.9423 37.5,51.5C 37.5,52.1667 37.5,52.8333 37.5,53.5C 35.9731,53.427 34.9731,54.0937 34.5,55.5C 26.1271,57.4814 20.4605,54.4814 17.5,46.5C 17.6741,44.139 18.0074,41.8056 18.5,39.5C 19.4013,38.7095 20.0679,37.7095 20.5,36.5C 20.5,35.8333 20.8333,35.5 21.5,35.5C 23.0269,35.573 24.0269,34.9063 24.5,33.5 Z"/></g>
<g><path style="opacity:0.008" fill="#7f807f" d="M 59.5,42.5 C 59.5,43.1667 59.5,43.8333 59.5,44.5C 56.5,41.8333 53.5,39.1667 50.5,36.5C 50.5,36.1667 50.5,35.8333 50.5,35.5C 50.4346,35.0618 50.6012,34.7284 51,34.5C 53.7028,37.3714 56.5361,40.0381 59.5,42.5 Z"/></g>
<g><path style="opacity:0.156" fill="#2d2d2d" d="M 37.5,51.5 C 35.9505,52.4408 34.2838,53.1075 32.5,53.5C 22.6395,55.1371 18.4728,50.8038 20,40.5C 21.1585,37.5066 23.3252,35.8399 26.5,35.5C 33.8668,33.9867 38.2002,37.1533 39.5,45C 38.9671,47.2261 38.3004,49.3927 37.5,51.5 Z"/></g>
<g><path style="opacity:0.004" fill="#353535" d="M -0.5,37.5 C 7.16667,44.5 14.5,51.8333 21.5,59.5C 20.1667,59.5 18.8333,59.5 17.5,59.5C 17.5,58.8333 17.1667,58.5 16.5,58.5C 11.1667,52.5 5.5,46.8333 -0.5,41.5C -0.5,40.1667 -0.5,38.8333 -0.5,37.5 Z"/></g>
<g><path style="opacity:0.105" fill="#363636" d="M 40.5,40.5 C 41.1667,40.5 41.5,40.8333 41.5,41.5C 41.5,42.1667 41.8333,42.5 42.5,42.5C 42.3893,43.1174 42.056,43.6174 41.5,44C 46.7031,49.0354 51.7031,54.202 56.5,59.5C 55.1667,59.5 53.8333,59.5 52.5,59.5C 52.5,58.8333 52.1667,58.5 51.5,58.5C 48.5375,55.0359 45.3709,51.7025 42,48.5C 41.5,49 41,49.5 40.5,50C 43.7044,53.0359 46.7044,56.2026 49.5,59.5C 48.1667,59.5 46.8333,59.5 45.5,59.5C 45.5,58.8333 45.1667,58.5 44.5,58.5C 42.8729,56.3702 41.0396,54.3702 39,52.5C 38.6174,53.056 38.1174,53.3893 37.5,53.5C 37.5,52.8333 37.5,52.1667 37.5,51.5C 38.7899,50.9423 39.6232,49.9423 40,48.5C 40.4974,45.854 40.6641,43.1873 40.5,40.5 Z"/></g>
<g><path style="opacity:0.004" fill="#3d3d3d" d="M 42.5,42.5 C 42.5,42.1667 42.5,41.8333 42.5,41.5C 43.9587,41.4326 45.2921,41.7659 46.5,42.5C 46.8333,42.5 47.1667,42.5 47.5,42.5C 50.8333,46.5 54.5,50.1667 58.5,53.5C 58.5,54.1667 58.8333,54.5 59.5,54.5C 59.5,55.8333 59.5,57.1667 59.5,58.5C 59.1667,58.5 58.8333,58.5 58.5,58.5C 53.5,52.8333 48.1667,47.5 42.5,42.5 Z"/></g>
<g><path style="opacity:0.008" fill="#7f807f" d="M -0.5,44.5 C 4.83333,49.1667 9.83333,54.1667 14.5,59.5C 13.8333,59.5 13.1667,59.5 12.5,59.5C 8.5,54.8333 4.16667,50.5 -0.5,46.5C -0.5,45.8333 -0.5,45.1667 -0.5,44.5 Z"/></g>
<g><path style="opacity:0.012" fill="#545554" d="M 59.5,45.5 C 59.5,45.8333 59.5,46.1667 59.5,46.5C 58.8299,46.0187 58.8299,45.6853 59.5,45.5 Z"/></g>
<g><path style="opacity:0.012" fill="#2c2c2c" d="M -0.5,46.5 C 4.16667,50.5 8.5,54.8333 12.5,59.5C 11.8333,59.5 11.1667,59.5 10.5,59.5C 10.5,58.8333 10.1667,58.5 9.5,58.5C 9.5,57.8333 9.16667,57.5 8.5,57.5C 8.5,56.8333 8.16667,56.5 7.5,56.5C 7.5,55.8333 7.16667,55.5 6.5,55.5C 6.5,54.8333 6.16667,54.5 5.5,54.5C 5.5,53.8333 5.16667,53.5 4.5,53.5C 4.5,52.8333 4.16667,52.5 3.5,52.5C 3.5,51.8333 3.16667,51.5 2.5,51.5C 2.5,50.8333 2.16667,50.5 1.5,50.5C 1.5,49.8333 1.16667,49.5 0.5,49.5C 0.5,48.8333 0.166667,48.5 -0.5,48.5C -0.5,47.8333 -0.5,47.1667 -0.5,46.5 Z"/></g>
<g><path style="opacity:0.004" fill="#2c2c2c" d="M -0.5,49.5 C -0.166667,49.5 0.166667,49.5 0.5,49.5C 1.16667,49.5 1.5,49.8333 1.5,50.5C 2.16667,50.5 2.5,50.8333 2.5,51.5C 3.16667,51.5 3.5,51.8333 3.5,52.5C 4.16667,52.5 4.5,52.8333 4.5,53.5C 5.16667,53.5 5.5,53.8333 5.5,54.5C 6.16667,54.5 6.5,54.8333 6.5,55.5C 7.16667,55.5 7.5,55.8333 7.5,56.5C 8.16667,56.5 8.5,56.8333 8.5,57.5C 9.16667,57.5 9.5,57.8333 9.5,58.5C 9.5,58.8333 9.5,59.1667 9.5,59.5C 8.83333,59.5 8.16667,59.5 7.5,59.5C 5.16667,56.5 2.5,53.8333 -0.5,51.5C -0.5,50.8333 -0.5,50.1667 -0.5,49.5 Z"/></g>
<g><path style="opacity:0.008" fill="#7f807f" d="M -0.5,51.5 C 2.5,53.8333 5.16667,56.5 7.5,59.5C 6.83333,59.5 6.16667,59.5 5.5,59.5C 3.83333,57.1667 1.83333,55.1667 -0.5,53.5C -0.5,52.8333 -0.5,52.1667 -0.5,51.5 Z"/></g>
<g><path style="opacity:0.012" fill="#545554" d="M 59.5,52.5 C 59.5,52.8333 59.5,53.1667 59.5,53.5C 58.8299,53.0187 58.8299,52.6853 59.5,52.5 Z"/></g>
<g><path style="opacity:0.098" fill="#333333" d="M 37.5,53.5 C 39.1667,55.5 40.8333,57.5 42.5,59.5C 41.1667,59.5 39.8333,59.5 38.5,59.5C 38.5,58.8333 38.1667,58.5 37.5,58.5C 36.8333,57.1667 35.8333,56.1667 34.5,55.5C 34.9731,54.0937 35.9731,53.427 37.5,53.5 Z"/></g>
<g><path style="opacity:0.012" fill="#2c2c2c" d="M -0.5,53.5 C 1.83333,55.1667 3.83333,57.1667 5.5,59.5C 4.83333,59.5 4.16667,59.5 3.5,59.5C 3.5,58.8333 3.16667,58.5 2.5,58.5C 2.5,57.8333 2.16667,57.5 1.5,57.5C 1.5,56.8333 1.16667,56.5 0.5,56.5C 0.5,55.8333 0.166667,55.5 -0.5,55.5C -0.5,54.8333 -0.5,54.1667 -0.5,53.5 Z"/></g>
<g><path style="opacity:0.004" fill="#373737" d="M -0.5,56.5 C -0.166667,56.5 0.166667,56.5 0.5,56.5C 1.16667,56.5 1.5,56.8333 1.5,57.5C 2.16667,57.5 2.5,57.8333 2.5,58.5C 2.5,58.8333 2.5,59.1667 2.5,59.5C 1.5,59.5 0.5,59.5 -0.5,59.5C -0.5,58.5 -0.5,57.5 -0.5,56.5 Z"/></g>
<g><path style="opacity:0.012" fill="#545554" d="M 16.5,58.5 C 16.5,58.8333 16.5,59.1667 16.5,59.5C 15.8299,59.0187 15.8299,58.6853 16.5,58.5 Z"/></g>
<g><path style="opacity:0.012" fill="#545554" d="M 23.5,58.5 C 23.5,58.8333 23.5,59.1667 23.5,59.5C 22.8299,59.0187 22.8299,58.6853 23.5,58.5 Z"/></g>
<g><path style="opacity:0.012" fill="#545554" d="M 29.5,58.5 C 29.8333,58.5 30.1667,58.5 30.5,58.5C 30.5,58.8333 30.5,59.1667 30.5,59.5C 30.1667,59.1667 29.8333,58.8333 29.5,58.5 Z"/></g>
<g><path style="opacity:0.012" fill="#545554" d="M 37.5,58.5 C 37.5,58.8333 37.5,59.1667 37.5,59.5C 36.8299,59.0187 36.8299,58.6853 37.5,58.5 Z"/></g>
<g><path style="opacity:0.012" fill="#545554" d="M 44.5,58.5 C 44.5,58.8333 44.5,59.1667 44.5,59.5C 43.8299,59.0187 43.8299,58.6853 44.5,58.5 Z"/></g>
<g><path style="opacity:0.012" fill="#545554" d="M 51.5,58.5 C 51.5,58.8333 51.5,59.1667 51.5,59.5C 50.8299,59.0187 50.8299,58.6853 51.5,58.5 Z"/></g>
<g><path style="opacity:0.012" fill="#545554" d="M 58.5,58.5 C 58.5,58.8333 58.5,59.1667 58.5,59.5C 57.8299,59.0187 57.8299,58.6853 58.5,58.5 Z"/></g>
</svg>
