<?xml version="1.0" encoding="UTF-8"?>
<!DOCTYPE svg PUBLIC "-//W3C//DTD SVG 1.1//EN" "http://www.w3.org/Graphics/SVG/1.1/DTD/svg11.dtd">
<svg xmlns="http://www.w3.org/2000/svg" version="1.1" width="512px" height="512px" style="shape-rendering:geometricPrecision; text-rendering:geometricPrecision; image-rendering:optimizeQuality; fill-rule:evenodd; clip-rule:evenodd" xmlns:xlink="http://www.w3.org/1999/xlink">
<g><path style="opacity:0.991" fill="#000000" d="M 104.5,-0.5 C 205.167,-0.5 305.833,-0.5 406.5,-0.5C 456.826,7.77065 490.326,36.104 507,84.5C 508.715,91.2585 510.215,97.9252 511.5,104.5C 511.5,114.167 511.5,123.833 511.5,133.5C 503.229,183.826 474.896,217.326 426.5,234C 419.935,235.846 413.269,237.18 406.5,238C 305.833,238.667 205.167,238.667 104.5,238C 53.9528,230.12 20.4528,201.954 4,153.5C 2.28494,146.741 0.784944,140.075 -0.5,133.5C -0.5,123.833 -0.5,114.167 -0.5,104.5C 7.77065,54.1741 36.104,20.6741 84.5,4C 91.2585,2.28494 97.9252,0.784944 104.5,-0.5 Z M 380.5,34.5 C 429.486,32.3926 460.986,54.726 475,101.5C 481.075,145.188 464.575,177.021 425.5,197C 385.253,210.982 351.419,201.815 324,169.5C 305.955,143.339 302.622,115.339 314,85.5C 327.688,57.2973 349.855,40.2973 380.5,34.5 Z"/></g>
<g><path style="opacity:0.941" fill="#000000" d="M 511.5,377.5 C 511.5,387.167 511.5,396.833 511.5,406.5C 503.229,456.826 474.896,490.326 426.5,507C 419.741,508.715 413.075,510.215 406.5,511.5C 305.833,511.5 205.167,511.5 104.5,511.5C 54.1741,503.229 20.6741,474.896 4,426.5C 2.28494,419.741 0.784944,413.075 -0.5,406.5C -0.5,396.833 -0.5,387.167 -0.5,377.5C 7.77065,327.174 36.104,293.674 84.5,277C 91.0646,275.154 97.7313,273.82 104.5,273C 205.167,272.333 305.833,272.333 406.5,273C 457.047,280.88 490.547,309.046 507,357.5C 508.715,364.259 510.215,370.925 511.5,377.5 Z M 106.5,290.5 C 205.834,290.333 305.167,290.5 404.5,291C 442.56,297.109 469.727,317.609 486,352.5C 502.11,398.559 492.277,438.059 456.5,471C 441.317,483.254 423.984,490.587 404.5,493C 305.167,493.667 205.833,493.667 106.5,493C 68.4241,486.92 41.2574,466.42 25,431.5C 8.88969,385.441 18.723,345.941 54.5,313C 69.9956,301.117 87.3289,293.617 106.5,290.5 Z M 109.5,324.5 C 140.256,322.228 163.423,334.228 179,360.5C 192.852,392.237 187.352,420.07 162.5,444C 140.786,460.672 117.12,464.006 91.5,454C 60.4731,437.78 47.6398,412.28 53,377.5C 61.0848,348.245 79.9181,330.578 109.5,324.5 Z"/></g>
<g><path style="opacity:0.936" fill="#000000" d="M 107.5,306.5 C 150.419,303.863 180.919,321.863 199,360.5C 211.267,398.265 203.101,430.765 174.5,458C 145.379,479.75 114.046,483.417 80.5,469C 45.9397,449.712 30.4397,420.212 34,380.5C 42.013,339.321 66.513,314.654 107.5,306.5 Z M 109.5,324.5 C 79.9181,330.578 61.0848,348.245 53,377.5C 47.6398,412.28 60.4731,437.78 91.5,454C 117.12,464.006 140.786,460.672 162.5,444C 187.352,420.07 192.852,392.237 179,360.5C 163.423,334.228 140.256,322.228 109.5,324.5 Z"/></g>
</svg>
